<svg width="32" height="32" viewBox="0 0 32 32" fill="none" xmlns="http://www.w3.org/2000/svg">
<path d="M16 6C14.9375 6 14.0039 6.5625 13.4687 7.40625C13.0312 7.15625 12.5351 7 12 7C10.3555 7 8.99999 8.35547 8.99999 10V13.6562L8.87499 13.8125C8.80077 13.8984 8.73046 13.9766 8.65624 14.0625C8.14452 14.6602 7.65624 15.293 7.21874 15.9375L6.90624 16.3438C6.48046 16.8945 6.21874 17.5352 6.09374 18.1875C6.07811 18.2617 6.04296 18.332 6.03124 18.4062C5.85546 19.6523 6.22655 20.9492 7.09374 21.9375L9.46874 24.625C10.7969 26.1367 12.707 27 14.7187 27H20C23.8555 27 27 23.8555 27 20V11C27 9.35547 25.6445 8 24 8C23.4648 8 22.9687 8.15625 22.5312 8.40625C21.9961 7.5625 21.0625 7 20 7C19.4648 7 18.9687 7.15625 18.5312 7.40625C17.9961 6.5625 17.0625 6 16 6ZM16 8C16.5664 8 17 8.43359 17 9V11.1875C16.6836 11.0742 16.3516 11 16 11H15V9C15 8.43359 15.4336 8 16 8ZM12 9C12.5664 9 13 9.43359 13 10V11H11.5937L11.3125 11.2812C11.3125 11.2812 11.0859 11.5117 11 11.5938V10C11 9.43359 11.4336 9 12 9ZM20 9C20.5664 9 21 9.43359 21 10V13C21 13.5664 20.5664 14 20 14C19.4336 14 19 13.5664 19 13V10C19 9.43359 19.4336 9 20 9ZM24 10C24.5664 10 25 10.4336 25 11V13C25 13.5664 24.5664 14 24 14C23.4336 14 23 13.5664 23 13V11C23 10.4336 23.4336 10 24 10ZM12.4375 13H16C16.5625 13 17 13.4375 17 14C17 14.5625 16.5625 15 16 15H12.875L12.5937 15.375L10.25 18.3438L11.8125 19.5938L13.6562 17.2812C14.0156 17.4492 14.4258 17.6992 14.875 18.0625C15.9414 18.9297 17 20.3477 17 23H19C19 20.1328 17.8555 18.1562 16.5937 16.9375C17.4023 16.7695 18.1016 16.2734 18.5312 15.5938C18.9687 15.8438 19.4648 16 20 16C20.7656 16 21.4687 15.6992 22 15.2188C22.5312 15.6992 23.2344 16 24 16C24.3515 16 24.6836 15.9258 25 15.8125V20C25 22.7734 22.7734 25 20 25H14.7187C13.2812 25 11.918 24.3945 10.9687 23.3125L8.59374 20.5938C8.16405 20.1055 7.96483 19.5078 7.99999 18.9062C7.99999 18.8984 8.02733 18.832 8.03124 18.8125C8.03514 18.7812 8.02733 18.75 8.03124 18.7188C8.07811 18.5 8.23046 18.0781 8.56249 17.5312C8.60546 17.4609 8.67186 17.3828 8.71874 17.3125L10.1875 15.375C11.293 14.082 12.2148 13.2109 12.4375 13Z" fill="black"/>
</svg>
