<?xml version="1.0" encoding="UTF-8"?>
<svg id="Layer_1" xmlns="http://www.w3.org/2000/svg" version="1.1" viewBox="0 0 207.96 72.95">
  <!-- Generator: Adobe Illustrator 29.5.1, SVG Export Plug-In . SVG Version: 2.1.0 Build 141)  -->
  <defs>
    <style>
      .st0 {
        fill: #789bff;
      }

      .st1 {
        fill: #050545;
      }

      .st2 {
        fill: #b7d2ff;
      }
    </style>
  </defs>
  <path class="st0" d="M92.36,14.34h49.71V2.18h-49.71c-10.12,0-18.29,8.27-18.29,18.39v31.32c0,10.12,8.17,18.39,18.29,18.39h49.71v-12.16h-49.71c-3.4,0-6.23-2.82-6.23-6.23v-12.84h43.78v-12.16h-43.78v-6.32c0-3.4,2.82-6.23,6.23-6.23"/>
  <path class="st1" d="M207.19,20.95v-.39c0-10.12-8.27-18.39-18.39-18.39h-27.63c-10.12,0-18.29,8.27-18.29,18.39v.39c0,3.89,1.17,7.49,3.21,10.41.68,1.07,1.46,2.04,2.33,2.92,3.31,3.21,7.78,5.16,12.74,5.16h24.51c5.16,0,9.44,4.18,9.44,9.34s-4.28,9.34-9.44,9.34h-21.3c-5.16,0-9.34-4.18-9.34-9.34h-12.16c0,11.87,9.63,21.5,21.5,21.5h21.3c11.87,0,21.5-9.63,21.5-21.5,0-5.16-1.85-9.92-4.86-13.62-.29-.29-.49-.58-.78-.88-3.89-4.28-9.53-7-15.86-7h-24.51c-3.4,0-6.23-2.82-6.23-6.23v-.39c0-3.4,2.82-6.23,6.23-6.23h27.63c3.4,0,6.23,2.82,6.23,6.23v.39l12.16-.1Z"/>
  <path class="st1" d="M.6,48.05c-.55-3.19.35-6.81,1.22-9.91C7.91,16.44,27.52,1.11,50.06.47c4.08-.12,13.55-.37,12.5,6.05-.96,5.86-6.38,3.9-10.25,3.88-18.86-.06-35.89,12-40.9,30.41-1.44,5.3-.95,13.04-9.4,9.08l-1.42-1.84Z"/>
  <path class="st2" d="M46.17,68.1c-15.01-14.88,8.97-34.56,20.85-19.37,10.91,13.95-9.01,31.12-20.85,19.37M50.71,56.94c-.83,6.36,9.31,8.21,10.06,1.21.72-6.79-9.24-7.47-10.06-1.21Z"/>
  <path class="st0" d="M23.08,54.02c-2.7-2.63-1.13-7.45-.04-10.56,4.06-11.59,14.61-19.63,26.87-20.56,1.71-.13,5.79-.15,7.28.46,2.84,1.15,4.17,4.49,2.62,7.14-2.1,3.56-4.85,2.19-8.12,2.34-8.36.36-15.63,5-18.88,12.85-.98,2.37-1.1,6.82-2.89,8.41-1.81,1.61-5.1,1.61-6.83-.08"/>
</svg>