<?xml version="1.0" encoding="UTF-8"?>
<svg id="Layer_1" xmlns="http://www.w3.org/2000/svg" version="1.1" viewBox="0 0 299.87 86.49">
  <!-- Generator: Adobe Illustrator 29.6.1, SVG Export Plug-In . SVG Version: 2.1.1 Build 9)  -->
  <defs>
    <style>
      .st0 {
        fill: #789aff;
      }

      .st1 {
        fill: #b6d1ff;
      }

      .st2 {
        fill: #1a1a18;
      }

      .st3 {
        fill: #050545;
      }
    </style>
  </defs>
  <path class="st0" d="M103.13,42.27h13.84v-4.94h-13.84c-7.63,0-13.84,6.21-13.84,13.84s6.21,13.84,13.84,13.84h13.84v-4.94h-13.84c-4.9,0-8.9-3.99-8.9-8.9s3.99-8.9,8.9-8.9M67.7,42.27h20.21v-4.94h-20.21c-4.11,0-7.43,3.36-7.43,7.47v12.73c0,4.11,3.32,7.47,7.43,7.47h20.21v-4.94h-20.21c-1.38,0-2.53-1.15-2.53-2.53v-5.22h17.79v-4.94h-17.79v-2.57c0-1.38,1.15-2.53,2.53-2.53ZM59,37.33h-6.21l-7.59,9.86-7.59-9.86h-6.25l10.72,13.9-10.64,13.82h6.25l7.55-9.78,7.55,9.78h6.25l-10.68-13.82,10.72-13.9h-.08ZM59,65.05h-.04l.04.08v-.08ZM31.32,65.13l.08-.08h-.08v.08ZM8.15,42.27h20.21v-4.94H8.15c-4.11,0-7.43,3.36-7.43,7.47v12.73c0,4.11,3.32,7.47,7.43,7.47h20.21v-4.94H8.15c-1.38,0-2.53-1.15-2.53-2.53v-5.22h17.79v-4.94H5.62v-2.57c0-1.38,1.15-2.53,2.53-2.53Z"/>
  <path class="st3" d="M293.63,41.13l-8.9,6.84-8.9-6.84-4.94-3.8v27.68h4.94v-17.64l4.86,3.72,4.03,3.12,4.03-3.12,4.86-3.72v17.64h4.94v-27.68l-4.94,3.8ZM265.99,60.07l-11.59-22.74-11.59,22.74-2.53,4.94h5.54l2.53-4.94,6.05-11.86,6.05,11.86,2.53,4.94h5.54l-2.53-4.94ZM217.72,42.27h20.21v-4.94h-20.21c-4.11,0-7.43,3.36-7.43,7.47v12.73c0,4.11,3.32,7.47,7.43,7.47h20.21v-4.94h-20.21c-1.38,0-2.53-1.15-2.53-2.53v-5.22h17.79v-4.94h-17.79v-2.57c0-1.38,1.15-2.53,2.53-2.53ZM186.28,47.45v-5.1h12.53c.87,0,1.46.4,1.78.71.28.28.75.91.75,1.82,0,.99-.59,1.9-1.5,2.29-.32.16-.67.24-1.03.24l-12.53.04ZM199.76,52.24h0c.75-.08,1.46-.28,2.14-.59,2.57-1.19,4.35-3.8,4.35-6.8,0-2.06-.83-3.91-2.17-5.26-1.34-1.34-3.2-2.17-5.26-2.17h-17.48v27.68h4.94v-12.73h4.94c1.78,0,3.32.95,4.19,2.37l.12.24,2.65,5.18,2.53,4.94h5.54l-2.53-4.94-3.95-7.91ZM149.75,37.33v4.94h11.35v22.74h4.94v-22.74h11.35v-4.94h-27.64ZM147.1,44.96v-.16c0-4.11-3.36-7.47-7.47-7.47h-11.23c-4.11,0-7.43,3.36-7.43,7.47v.16c0,1.58.47,3.04,1.3,4.23.28.43.59.83.95,1.19,1.34,1.3,3.16,2.1,5.18,2.1h9.96c2.1,0,3.84,1.7,3.84,3.8s-1.74,3.8-3.84,3.8h-8.66c-2.1,0-3.8-1.7-3.8-3.8h-4.94c0,4.82,3.91,8.74,8.74,8.74h8.66c4.82,0,8.74-3.91,8.74-8.74,0-2.1-.75-4.03-1.98-5.54-.12-.12-.2-.24-.32-.36-1.58-1.74-3.88-2.85-6.44-2.85h-9.96c-1.38,0-2.53-1.15-2.53-2.53v-.16c0-1.38,1.15-2.53,2.53-2.53h11.23c1.38,0,2.53,1.15,2.53,2.53v.16l4.94-.04Z"/>
  <path class="st3" d="M254.79,26.1c-.3-1.71.19-3.66.66-5.32,3.27-11.66,13.81-19.89,25.92-20.24,2.19-.06,7.28-.2,6.71,3.25-.52,3.15-3.43,2.09-5.5,2.09-10.13-.03-19.28,6.45-21.97,16.34-.77,2.85-.51,7.01-5.05,4.88l-.76-.99Z"/>
  <path class="st1" d="M279.27,36.87c-8.06-7.99,4.82-18.57,11.2-10.41,5.86,7.49-4.84,16.72-11.2,10.41M281.72,30.88c-.45,3.42,5,4.41,5.41.65.39-3.65-4.96-4.01-5.41-.65Z"/>
  <path class="st0" d="M266.87,29.31c-1.45-1.41-.61-4-.02-5.67,2.18-6.23,7.85-10.54,14.44-11.04.92-.07,3.11-.08,3.91.25,1.53.62,2.24,2.41,1.41,3.84-1.13,1.92-2.6,1.18-4.36,1.25-4.49.2-8.4,2.68-10.15,6.9-.53,1.27-.59,3.66-1.55,4.52-.97.86-2.74.86-3.67-.04"/>
  <path class="st2" d="M294.81,79.91h3.61c-.4-.81-.99-1.21-1.78-1.21-.86,0-1.47.4-1.83,1.21M299.71,80.9h-5.03c.11.61.36,1.05.75,1.33.39.28.81.42,1.27.42.7,0,1.3-.29,1.77-.88l.91.68c-.68.88-1.59,1.32-2.73,1.32-.88,0-1.61-.3-2.2-.9-.59-.6-.88-1.35-.88-2.24,0-.84.3-1.56.9-2.17.6-.61,1.33-.92,2.19-.92s1.57.31,2.18.93c.6.62.9,1.43.89,2.42ZM292.62,81.82v1.42c-.63.36-1.25.54-1.84.54-.81,0-1.53-.31-2.14-.92-.61-.61-.92-1.32-.92-2.13,0-.92.3-1.67.91-2.28.61-.6,1.37-.9,2.29-.9.55,0,1.11.14,1.69.42v1.39c-.62-.39-1.21-.59-1.77-.59-.51,0-.96.18-1.35.54-.39.36-.58.78-.58,1.27,0,.55.18,1.01.54,1.38.36.37.8.56,1.33.56s1.14-.24,1.83-.72ZM281.56,83.62v-5.89h1.24v.98c.35-.39.67-.68.96-.87.29-.19.61-.28.96-.28.53,0,.98.18,1.36.53.38.35.56.78.56,1.27v4.27h-1.24v-3.9c0-.32-.1-.59-.31-.8-.2-.21-.47-.31-.78-.31-.41,0-.77.18-1.07.53-.3.35-.45.78-.45,1.27v3.22h-1.24ZM275.46,79.91h3.61c-.4-.81-.99-1.21-1.78-1.21-.86,0-1.47.4-1.83,1.21ZM280.36,80.9h-5.03c.11.61.36,1.05.75,1.33.39.28.81.42,1.27.42.7,0,1.3-.29,1.77-.88l.91.68c-.68.88-1.59,1.32-2.73,1.32-.88,0-1.61-.3-2.2-.9-.59-.6-.88-1.35-.88-2.24,0-.84.3-1.56.9-2.17.6-.61,1.33-.92,2.19-.92s1.57.31,2.18.93c.6.62.9,1.43.89,2.42ZM271.78,80.66c0-.56-.19-1.02-.58-1.39-.38-.37-.86-.56-1.42-.56-.52,0-.98.19-1.37.58-.39.39-.59.83-.59,1.34,0,.55.2,1.02.58,1.42.39.4.86.59,1.39.59s1.01-.19,1.4-.58.58-.86.58-1.4ZM271.61,77.73h1.21v5.66c0,.83-.29,1.54-.86,2.13-.57.58-1.27.88-2.08.88-.62,0-1.19-.17-1.71-.5-.52-.34-.9-.85-1.14-1.53h1.29c.38.63.92.95,1.61.95.47,0,.86-.17,1.19-.5.33-.33.49-.74.49-1.21v-1.11c-.6.87-1.35,1.31-2.27,1.31-.75,0-1.41-.31-1.97-.93-.56-.62-.84-1.36-.84-2.21s.27-1.58.82-2.18c.55-.61,1.19-.91,1.94-.91.97,0,1.74.47,2.31,1.42v-1.24ZM263.62,77.73h1.24v5.89h-1.24v-5.89ZM263.27,75.8c0-.26.09-.48.29-.67.19-.19.42-.28.68-.28s.48.1.67.28c.19.19.28.41.28.67s-.1.48-.28.67c-.19.19-.41.28-.67.28s-.49-.09-.68-.28c-.19-.19-.29-.41-.29-.67ZM260.46,74.35h1.24v9.27h-1.24v-9.27ZM257.25,74.35h1.24v9.27h-1.24v-9.27ZM250.76,79.91h3.61c-.4-.81-.99-1.21-1.78-1.21-.86,0-1.47.4-1.83,1.21ZM255.66,80.9h-5.03c.11.61.36,1.05.75,1.33.39.28.81.42,1.27.42.7,0,1.3-.29,1.77-.88l.91.68c-.68.88-1.59,1.32-2.73,1.32-.88,0-1.61-.3-2.2-.9-.59-.6-.88-1.35-.88-2.24,0-.84.3-1.56.9-2.17.6-.61,1.33-.92,2.19-.92s1.57.31,2.18.93c.6.62.9,1.43.89,2.42ZM246.21,76.03h1.24v1.7h1.23v1.16h-1.23v4.74h-1.24v-4.74h-.98v-1.16h.98v-1.7ZM239.18,83.62v-5.89h1.24v.98c.35-.39.67-.68.96-.87.29-.19.61-.28.96-.28.53,0,.98.18,1.36.53.38.35.56.78.56,1.27v4.27h-1.24v-3.9c0-.32-.1-.59-.31-.8-.2-.21-.47-.31-.78-.31-.41,0-.77.18-1.07.53-.3.35-.45.78-.45,1.27v3.22h-1.24ZM236.3,74.52h1.24v9.1h-1.24v-9.1ZM225.85,79.91h3.61c-.4-.81-.99-1.21-1.78-1.21-.86,0-1.47.4-1.83,1.21ZM230.74,80.9h-5.03c.11.61.36,1.05.75,1.33.39.28.81.42,1.27.42.7,0,1.3-.29,1.77-.88l.91.68c-.68.88-1.59,1.32-2.73,1.32-.88,0-1.61-.3-2.2-.9-.59-.6-.88-1.35-.88-2.24,0-.84.3-1.56.9-2.17.6-.61,1.33-.92,2.19-.92s1.57.31,2.18.93c.6.62.9,1.43.89,2.42ZM223.55,78.42l-.83.73c-.21-.15-.4-.27-.56-.35-.16-.08-.34-.12-.56-.12-.51,0-.76.19-.76.56,0,.27.32.53.96.78.64.25,1.1.53,1.38.83.28.3.42.66.42,1.09,0,.49-.2.93-.61,1.3-.4.37-.88.56-1.43.56-.83,0-1.51-.38-2.05-1.15l.98-.47c.34.33.7.5,1.07.5.26,0,.48-.07.67-.21.19-.14.29-.3.29-.49,0-.33-.34-.63-1.01-.89-.68-.26-1.15-.53-1.4-.8-.26-.27-.39-.6-.39-1,0-.49.19-.9.55-1.22.37-.33.83-.49,1.39-.49s1.18.29,1.87.87ZM216.91,77.73h1.24v5.89h-1.24v-5.89ZM216.56,75.8c0-.26.09-.48.29-.67.19-.19.42-.28.68-.28s.48.1.67.28c.19.19.28.41.28.67s-.1.48-.28.67c-.19.19-.41.28-.67.28s-.49-.09-.68-.28c-.19-.19-.29-.41-.29-.67ZM213.3,77.73v1.21c.28-.49.55-.84.81-1.06.27-.22.61-.33,1.03-.33.12,0,.29.03.51.09l-.37,1.24c-.24-.05-.4-.07-.47-.07-.42,0-.77.15-1.06.44-.29.29-.43.66-.43,1.1v3.27h-1.24v-5.89h1.21ZM209.03,80.64c0-.52-.19-.98-.58-1.36-.39-.39-.85-.58-1.38-.58s-1,.19-1.39.58c-.39.39-.59.84-.59,1.37s.2,1.01.58,1.4c.39.4.85.59,1.37.59s1.02-.2,1.41-.59c.39-.39.58-.86.58-1.41ZM205.26,77.73v1.18c.59-.91,1.35-1.36,2.28-1.36.76,0,1.41.3,1.96.91.55.61.82,1.33.82,2.18s-.28,1.59-.84,2.21c-.56.62-1.21.93-1.97.93-.44,0-.86-.11-1.26-.34-.4-.23-.73-.56-.99-.99v3.94h-1.24v-8.66h1.24ZM200.36,77.73v1.21c.28-.49.55-.84.81-1.06.27-.22.61-.33,1.03-.33.12,0,.29.03.51.09l-.37,1.24c-.24-.05-.4-.07-.47-.07-.42,0-.78.15-1.06.44-.29.29-.43.66-.43,1.1v3.27h-1.24v-5.89h1.21ZM192.65,79.91h3.61c-.4-.81-.99-1.21-1.78-1.21-.86,0-1.47.4-1.83,1.21ZM197.55,80.9h-5.03c.11.61.36,1.05.75,1.33.39.28.81.42,1.27.42.7,0,1.3-.29,1.77-.88l.91.68c-.68.88-1.59,1.32-2.73,1.32-.88,0-1.61-.3-2.2-.9-.59-.6-.88-1.35-.88-2.24,0-.84.3-1.56.9-2.17.6-.61,1.33-.92,2.19-.92s1.57.31,2.18.93c.6.62.9,1.43.89,2.42ZM188.1,76.03h1.24v1.7h1.23v1.16h-1.23v4.74h-1.24v-4.74h-.98v-1.16h.98v-1.7ZM181.07,83.62v-5.89h1.24v.98c.35-.39.67-.68.96-.87.29-.19.61-.28.96-.28.53,0,.98.18,1.36.53.38.35.56.78.56,1.27v4.27h-1.24v-3.9c0-.32-.1-.59-.31-.8-.2-.21-.47-.31-.78-.31-.41,0-.77.18-1.07.53-.3.35-.45.78-.45,1.27v3.22h-1.24ZM174.91,74.52h5.04v1.24h-3.8v2.25h3.8v1.24h-3.8v3.11h3.8v1.24h-5.04v-9.1ZM165.52,78.42l-.83.73c-.21-.15-.4-.27-.56-.35-.16-.08-.34-.12-.56-.12-.51,0-.76.19-.76.56,0,.27.32.53.96.78.64.25,1.1.53,1.38.83.28.3.42.66.42,1.09,0,.49-.2.93-.61,1.3-.4.37-.88.56-1.43.56-.83,0-1.51-.38-2.05-1.15l.98-.47c.34.33.7.5,1.07.5.26,0,.48-.07.67-.21.19-.14.29-.3.29-.49,0-.33-.34-.63-1.01-.89-.68-.26-1.15-.53-1.4-.8-.26-.27-.39-.6-.39-1,0-.49.19-.9.55-1.22.37-.33.83-.49,1.39-.49s1.18.29,1.87.87ZM155.33,83.62v-5.89h1.24v.98c.35-.39.67-.68.96-.87.29-.19.61-.28.96-.28.53,0,.98.18,1.36.53.38.35.56.78.56,1.27v4.27h-1.24v-3.9c0-.32-.1-.59-.31-.8-.2-.21-.47-.31-.78-.31-.41,0-.77.18-1.07.53-.3.35-.45.78-.45,1.27v3.22h-1.24ZM153.03,80.65c0-.5-.19-.94-.57-1.31-.38-.37-.83-.56-1.36-.56s-1,.19-1.39.57c-.39.38-.58.83-.58,1.35s.2.94.59,1.31c.39.37.86.56,1.38.56s.97-.19,1.35-.58c.39-.39.58-.83.58-1.34ZM147.91,80.65c0-.81.32-1.53.95-2.15.64-.63,1.37-.94,2.19-.94s1.59.31,2.22.93c.63.62.95,1.34.95,2.17s-.31,1.56-.93,2.2c-.62.63-1.34.95-2.15.95-.87,0-1.63-.31-2.27-.94-.64-.63-.96-1.36-.96-2.21ZM145.16,77.73h1.24v5.89h-1.24v-5.89ZM144.81,75.8c0-.26.09-.48.29-.67.19-.19.42-.28.68-.28s.48.1.67.28.28.41.28.67-.1.48-.28.67c-.19.19-.41.28-.67.28s-.49-.09-.68-.28c-.19-.19-.29-.41-.29-.67ZM141.48,76.03h1.24v1.7h1.23v1.16h-1.23v4.74h-1.24v-4.74h-.98v-1.16h.98v-1.7ZM138.14,80.68c0-.54-.2-1-.58-1.38-.39-.39-.85-.58-1.39-.58s-.99.19-1.38.57c-.39.38-.59.83-.59,1.35,0,.56.19,1.03.58,1.43.38.39.85.59,1.4.59s1.01-.19,1.39-.58c.39-.39.58-.85.58-1.39ZM137.97,77.73h1.24v5.89h-1.24v-1.17c-.61.89-1.36,1.33-2.25,1.33-.78,0-1.44-.3-1.99-.92-.55-.61-.83-1.35-.83-2.22,0-.83.28-1.55.83-2.16s1.21-.93,1.96-.93c.46,0,.9.13,1.32.38.41.25.74.58.97.99v-1.2ZM131.69,78.42l-.83.73c-.21-.15-.4-.27-.56-.35-.16-.08-.34-.12-.56-.12-.51,0-.76.19-.76.56,0,.27.32.53.96.78.64.25,1.1.53,1.38.83.28.3.42.66.42,1.09,0,.49-.2.93-.61,1.3-.4.37-.88.56-1.43.56-.83,0-1.51-.38-2.05-1.15l.98-.47c.34.33.7.5,1.07.5.26,0,.48-.07.67-.21.19-.14.29-.3.29-.49,0-.33-.34-.63-1.01-.89-.68-.26-1.15-.53-1.4-.8-.26-.27-.39-.6-.39-1,0-.49.19-.9.55-1.22.37-.33.83-.49,1.39-.49s1.18.29,1.87.87ZM124.65,77.73v1.21c.28-.49.55-.84.81-1.06.27-.22.61-.33,1.03-.33.12,0,.29.03.51.09l-.37,1.24c-.24-.05-.4-.07-.47-.07-.42,0-.77.15-1.06.44-.29.29-.43.66-.43,1.1v3.27h-1.24v-5.89h1.21ZM116.94,79.91h3.61c-.4-.81-.99-1.21-1.78-1.21-.86,0-1.47.4-1.83,1.21ZM121.84,80.9h-5.03c.11.61.36,1.05.75,1.33.39.28.81.42,1.27.42.7,0,1.3-.29,1.77-.88l.91.68c-.68.88-1.59,1.32-2.73,1.32-.88,0-1.61-.3-2.2-.9-.59-.6-.88-1.35-.88-2.24,0-.84.3-1.56.9-2.17.6-.61,1.33-.92,2.19-.92s1.57.31,2.18.93c.6.62.9,1.43.89,2.42ZM109.24,77.73h1.3l1.68,3.41,1.65-3.41h1.31l-2.96,6.11-2.98-6.11ZM103.21,83.62v-5.89h1.24v.98c.35-.39.67-.68.96-.87.29-.19.61-.28.96-.28.53,0,.98.18,1.36.53.38.35.56.78.56,1.27v4.27h-1.24v-3.9c0-.32-.1-.59-.31-.8-.2-.21-.47-.31-.78-.31-.41,0-.77.18-1.07.53-.3.35-.45.78-.45,1.27v3.22h-1.24ZM100.92,80.65c0-.5-.19-.94-.57-1.31-.38-.37-.83-.56-1.36-.56s-1,.19-1.39.57c-.39.38-.58.83-.58,1.35s.2.94.59,1.31c.39.37.86.56,1.38.56s.97-.19,1.35-.58c.39-.39.58-.83.58-1.34ZM95.8,80.65c0-.81.32-1.53.95-2.15.64-.63,1.37-.94,2.19-.94s1.59.31,2.22.93c.63.62.95,1.34.95,2.17s-.31,1.56-.93,2.2c-.62.63-1.34.95-2.15.95-.87,0-1.63-.31-2.27-.94-.64-.63-.96-1.36-.96-2.21ZM94.77,74.83v1.4c-.98-.48-1.88-.72-2.71-.72-1.06,0-1.95.34-2.67,1.02-.72.68-1.08,1.52-1.08,2.51s.37,1.85,1.11,2.53c.74.68,1.67,1.01,2.78,1.01.81,0,1.67-.25,2.57-.76v1.42c-.82.44-1.72.66-2.68.66-1.41,0-2.61-.48-3.61-1.43-1-.95-1.5-2.1-1.5-3.45s.49-2.45,1.47-3.39c.98-.94,2.17-1.41,3.56-1.41.89,0,1.81.2,2.76.6ZM77.92,78.42l-.83.73c-.21-.15-.4-.27-.56-.35-.16-.08-.34-.12-.56-.12-.51,0-.76.19-.76.56,0,.27.32.53.96.78.64.25,1.1.53,1.38.83.28.3.42.66.42,1.09,0,.49-.2.93-.61,1.3-.4.37-.88.56-1.43.56-.83,0-1.51-.38-2.05-1.15l.98-.47c.34.33.7.5,1.07.5.26,0,.48-.07.67-.21.19-.14.29-.3.29-.49,0-.33-.34-.63-1.01-.89-.68-.26-1.15-.53-1.4-.8-.26-.27-.39-.6-.39-1,0-.49.19-.9.55-1.22.37-.33.83-.49,1.39-.49s1.18.29,1.87.87ZM68.03,79.91h3.61c-.4-.81-.99-1.21-1.78-1.21-.86,0-1.47.4-1.83,1.21ZM72.93,80.9h-5.03c.11.61.36,1.05.75,1.33.39.28.81.42,1.27.42.7,0,1.3-.29,1.77-.88l.91.68c-.68.88-1.59,1.32-2.73,1.32-.88,0-1.61-.3-2.2-.9-.59-.6-.88-1.35-.88-2.24,0-.84.3-1.56.9-2.17.6-.61,1.33-.92,2.19-.92s1.57.31,2.18.93c.6.62.9,1.43.89,2.42ZM65.84,81.82v1.42c-.63.36-1.25.54-1.84.54-.81,0-1.53-.31-2.14-.92-.61-.61-.92-1.32-.92-2.13,0-.92.3-1.67.91-2.28.61-.6,1.37-.9,2.29-.9.55,0,1.11.14,1.69.42v1.39c-.62-.39-1.21-.59-1.77-.59-.51,0-.96.18-1.35.54-.39.36-.58.78-.58,1.27,0,.55.18,1.01.54,1.38.36.37.8.56,1.33.56s1.14-.24,1.83-.72ZM58.34,77.73h1.24v5.89h-1.24v-5.89ZM57.99,75.8c0-.26.09-.48.29-.67.19-.19.42-.28.68-.28s.48.1.67.28c.19.19.28.41.28.67s-.1.48-.28.67c-.19.19-.41.28-.67.28s-.49-.09-.68-.28c-.19-.19-.29-.41-.29-.67ZM55.69,80.65c0-.5-.19-.94-.57-1.31-.38-.37-.83-.56-1.36-.56s-1,.19-1.39.57c-.39.38-.58.83-.58,1.35s.2.94.59,1.31c.39.37.86.56,1.38.56s.97-.19,1.35-.58c.39-.39.58-.83.58-1.34ZM50.57,80.65c0-.81.32-1.53.95-2.15.64-.63,1.37-.94,2.19-.94s1.59.31,2.22.93c.63.62.95,1.34.95,2.17s-.31,1.56-.93,2.2c-.62.63-1.34.95-2.15.95-.87,0-1.63-.31-2.27-.94-.64-.63-.96-1.36-.96-2.21ZM42.31,74.52h1.31l2.85,6.45,2.9-6.45h1.31l-4.22,9.39-4.15-9.39ZM35.36,76.03h1.24v1.7h1.23v1.16h-1.23v4.74h-1.24v-4.74h-.98v-1.16h.98v-1.7ZM31.17,77.73v1.21c.28-.49.55-.84.81-1.06.27-.22.61-.33,1.03-.33.12,0,.29.03.51.09l-.37,1.24c-.24-.05-.4-.07-.47-.07-.42,0-.77.15-1.06.44-.29.29-.43.66-.43,1.1v3.27h-1.24v-5.89h1.21ZM23.47,79.91h3.61c-.4-.81-.99-1.21-1.78-1.21-.86,0-1.47.4-1.83,1.21ZM28.37,80.9h-5.03c.11.61.36,1.05.75,1.33.39.28.81.42,1.27.42.7,0,1.3-.29,1.77-.88l.91.68c-.68.88-1.59,1.32-2.73,1.32-.88,0-1.61-.3-2.2-.9-.59-.6-.88-1.35-.88-2.24,0-.84.3-1.56.9-2.17.6-.61,1.33-.92,2.19-.92s1.57.31,2.18.93c.6.62.9,1.43.89,2.42ZM19.59,80.64c0-.52-.19-.98-.58-1.36-.39-.39-.85-.58-1.38-.58s-1,.19-1.39.58c-.39.39-.59.84-.59,1.37s.2,1.01.58,1.4c.39.4.85.59,1.37.59s1.02-.2,1.41-.59c.39-.39.58-.86.58-1.41ZM15.82,77.73v1.18c.59-.91,1.35-1.36,2.28-1.36.76,0,1.41.3,1.96.91.55.61.82,1.33.82,2.18s-.28,1.59-.84,2.21c-.56.62-1.21.93-1.97.93-.44,0-.86-.11-1.26-.34-.4-.23-.73-.56-.99-.99v3.94h-1.24v-8.66h1.24ZM7.11,77.73h1.51l1.31,1.69,1.3-1.69h1.48l-2.05,2.66,2.48,3.23h-1.49l-1.74-2.26-1.74,2.26h-1.47l2.48-3.23-2.07-2.66ZM.72,74.52h5.04v1.24H1.96v2.25h3.8v1.24H1.96v3.11h3.8v1.24H.72v-9.1Z"/>
  <path class="st2" d="M81.48,79.72c0-.45.16-.83.47-1.15.32-.32.7-.47,1.14-.47s.83.16,1.14.47c.32.32.48.7.48,1.15s-.16.83-.48,1.14c-.32.32-.7.47-1.14.47s-.83-.16-1.14-.47c-.32-.32-.47-.7-.47-1.14"/>
  <path class="st2" d="M168.23,79.72c0-.45.16-.83.47-1.15.32-.32.7-.47,1.14-.47s.83.16,1.15.47c.32.32.48.7.48,1.15s-.16.83-.48,1.14c-.32.32-.7.47-1.15.47s-.83-.16-1.14-.47c-.32-.32-.47-.7-.47-1.14"/>
</svg>