<svg width="68" height="68" viewBox="0 0 68 68" fill="none" xmlns="http://www.w3.org/2000/svg">
<circle cx="34" cy="34" r="33" stroke="#789BFF" stroke-width="2"/>
<g clip-path="url(#clip0_79_28)">
<path d="M33.4367 15.0383C30.3313 15.2211 27.2531 16.3219 24.7547 18.1532C24.3578 18.4446 23.2844 19.218 23.2219 19.6696C23.1344 20.3016 23.6461 20.6829 24.2359 20.525C24.5609 20.4383 25.3438 19.6516 25.6922 19.4024C29.1703 16.9188 33.3891 16.011 37.5938 16.9274C38.2047 17.061 39.3594 17.5547 39.8281 17.5891C40.7102 17.6547 41.0164 16.4743 40.1141 16.0469C38.3844 15.2274 35.3352 14.925 33.4352 15.0368L33.4367 15.0383ZM41.7625 17.7C40.0516 19.3852 42.3742 22.0868 44.2734 20.7188C46.5828 19.0555 43.7305 15.7618 41.7625 17.7ZM48.5914 17.3743C48.4281 17.393 48.1844 17.5133 48.0625 17.6329L41.5914 25.1454C41.1164 25.936 42.0836 26.743 42.793 26.1133L49.1891 18.7594C49.7352 18.2477 49.3359 17.2891 48.5914 17.3743ZM21.7117 21.3602C20.8883 21.5454 21.0445 22.9977 22 22.9055C23.0477 22.8047 22.8789 21.0969 21.7117 21.3602ZM47.1063 22.8485C44.8109 23.1821 45.1227 26.9891 47.7024 26.7258C50.2141 26.4696 49.9422 22.436 47.1063 22.8485Z" fill="white"/>
<path d="M14 34.4687C14.1336 34.3031 14.4445 33.9218 14.6641 33.9218H18.2969C17.9023 31.4296 18.0805 28.8515 18.8227 26.4398C18.9711 25.957 19.5344 24.2328 19.957 24.0593C20.5031 23.8359 21.1461 24.2039 21.107 24.8101C21.0859 25.1406 20.4945 26.3398 20.3508 26.7953C19.6242 29.0976 19.4867 31.5398 19.8602 33.9203C20.2984 33.9289 20.9375 33.8414 21.268 34.1921C21.307 34.2335 21.5 34.5624 21.5 34.5851V35.796H23.2188V27.8664C23.2188 27.7101 23.6484 27.2804 23.8047 27.2804H30.1719V22.7882C30.1719 22.3914 30.7266 22.1531 31.0672 22.121C33.3023 21.9132 35.7664 22.346 38.025 22.2007C38.232 22.1453 38.6875 22.5648 38.6875 22.7101V31.2648H44.8984C45.1031 31.2648 45.6406 31.657 45.6406 31.8507V40.7179C48.1867 37.8851 49.3227 33.9265 49.0773 30.1328C49.0391 29.5367 48.625 28.0843 48.8539 27.6421C49.0641 27.2367 49.7234 27.1437 50.057 27.4351C50.3906 27.7265 50.6094 29.5476 50.6406 30.0554C50.9383 34.9249 49.2078 39.7078 45.6414 43.0234V44.7031C48.4062 44.2937 51.9484 42.271 53.6789 45.6109L54.0008 46.5781V47.5937C53.7398 48.6718 53.1766 49.5796 52.1789 50.1078C48.9258 50.9812 45.6445 51.9757 42.3469 52.6976C40.0984 53.1898 38.6516 53.1742 36.4602 52.439C32.4867 51.107 28.5367 49.1929 24.5867 47.7499H21.5008C21.5398 48.3695 21.5414 49.0406 20.832 49.2296C18.9156 49.0695 16.6094 49.4585 14.7406 49.2359C14.3375 49.1882 14.1969 49.0062 14 48.6874L14 34.4687ZM37.125 23.7656L31.7344 23.6874V36.8515L37.125 39.0781V23.7656ZM30.1719 28.8437H24.7812V35.7968H29.1172C29.2672 35.7968 29.9648 36.1984 30.1719 36.2656V28.8437ZM44.0781 32.8281H38.8047L38.6875 32.9453V40.3671C38.6875 40.4015 38.9797 40.8062 39.0383 40.9539C39.4227 41.9343 39.4148 42.7226 39.0602 43.7078C38.9672 43.9671 38.732 44.2617 38.693 44.5124C38.6648 44.6929 38.6508 45.5312 38.7617 45.6062C40.5828 45.9929 42.3164 45.4679 44.0789 45.0937V32.8281H44.0781ZM19.9375 47.6718V35.6015L19.8203 35.4843H15.5625V47.6718H19.9375ZM28.8047 37.3593H21.5V46.1874H24.8203C28.8961 47.6304 32.8359 49.5687 36.9281 50.9546C38.5391 51.4999 39.7406 51.6195 41.4242 51.3078C44.6586 50.7085 47.9617 49.4812 51.2047 48.8226C53.2328 47.996 52.6211 45.096 50.368 45.2523C50.1984 45.264 50.0164 45.3242 49.8445 45.3531C45.4992 46.0976 41.4258 48.1953 37.0063 46.7359C34.3977 45.8749 31.8227 44.6406 29.2172 43.7414C28.4328 43.3898 28.6383 42.2765 29.5078 42.214L35.1078 44.3374C37.5555 44.9124 38.757 41.8851 36.7867 40.7054L28.8047 37.3593Z" fill="#789BFF"/>
<path d="M33.4367 15.0383C35.3367 14.9265 38.3852 15.2281 40.1156 16.0484C41.018 16.4758 40.7109 17.6562 39.8297 17.5906C39.3609 17.5555 38.2062 17.0617 37.5953 16.9289C33.3906 16.0125 29.1719 16.9203 25.6937 19.4039C25.3453 19.6531 24.5617 20.4398 24.2375 20.5265C23.6477 20.6836 23.1359 20.3031 23.2234 19.6711C23.2859 19.2187 24.3594 18.4453 24.7562 18.1547C27.2547 16.3234 30.3328 15.2219 33.4383 15.0398L33.4367 15.0383Z" fill="#789BFF"/>
<path d="M48.5914 17.3742C49.3359 17.2891 49.7352 18.2477 49.1891 18.7594L42.793 26.1133C42.0844 26.7437 41.1172 25.9359 41.5914 25.1453L48.0625 17.6328C48.1844 17.5133 48.4289 17.393 48.5914 17.3742Z" fill="#789BFF"/>
<path d="M47.1063 22.8484C49.9422 22.4359 50.2133 26.4687 47.7024 26.7258C45.1227 26.9891 44.8109 23.1828 47.1063 22.8484ZM47.3367 24.4039C47.05 24.4891 47.0063 25.0258 47.3563 25.1391C48.0414 25.3609 48.057 24.1906 47.3367 24.4039Z" fill="#789BFF"/>
<path d="M41.7625 17.7C43.7305 15.7617 46.5828 19.0555 44.2734 20.7188C42.3742 22.0867 40.0516 19.3852 41.7625 17.7ZM43.1195 18.6977C42.6109 18.7719 42.5797 19.5789 43.2531 19.4688C43.7469 19.3883 43.5211 18.6391 43.1195 18.6977Z" fill="#789BFF"/>
<path d="M21.7117 21.3602C22.8789 21.0977 23.0477 22.8047 22 22.9055C21.0453 22.9977 20.8891 21.5453 21.7117 21.3602Z" fill="#789BFF"/>
</g>
<defs>
<clipPath id="clip0_79_28">
<rect width="40" height="40" fill="white" transform="translate(14 14)"/>
</clipPath>
</defs>
</svg>
