<svg width="310" height="54" viewBox="0 0 310 54" fill="none" xmlns="http://www.w3.org/2000/svg">
<g clip-path="url(#clip0_95_368)">
<path d="M80.6212 6.6694H91.4952V2.82715H80.6212C74.6259 2.82715 69.7473 7.65715 69.7473 13.5927C69.7473 19.5283 74.6259 24.3583 80.6212 24.3583H91.4952V20.516H80.6212C76.7678 20.516 73.6282 17.4078 73.6282 13.5927C73.6282 9.77764 76.7678 6.6694 80.6212 6.6694ZM52.7864 6.6694H68.6672V2.82715H52.7864C49.5553 2.82715 46.9467 5.44604 46.9467 8.6449V18.5496C46.9467 21.7484 49.5553 24.3673 52.7864 24.3673H68.6672V20.5251H52.7864C51.6972 20.5251 50.8002 19.637 50.8002 18.5586V14.4989H64.7771V10.6567H50.8002V8.65396C50.8002 7.5756 51.6972 6.68753 52.7864 6.68753V6.6694ZM45.949 2.82715H41.0703L35.1025 10.4935L29.1346 2.82715H24.2285L32.6494 13.638L24.2925 24.3855H29.1987L35.1299 16.7734L41.0612 24.3855H45.9673L37.583 13.638L46.0039 2.82715H45.9398H45.949ZM45.949 24.3945H45.9215L45.949 24.458V24.3945ZM24.201 24.4489L24.2651 24.3855H24.201V24.4489ZM5.99533 6.6694H21.8761V2.82715H5.99533C2.76426 2.82715 0.155602 5.44604 0.155602 8.6449V18.5496C0.155602 21.7484 2.76426 24.3673 5.99533 24.3673H21.8761V20.5251H5.99533C4.9061 20.5251 4.00909 19.637 4.00909 18.5586V14.4989H17.986V10.6567H4.00909V8.65396C4.00909 7.5756 4.9061 6.68753 5.99533 6.68753V6.6694Z" fill="#789BFF"/>
<path d="M135.833 32.1337L128.84 37.453L121.847 32.1337L117.966 29.1795V50.7106H121.847V36.9909L125.673 39.8816L128.84 42.3102L132.007 39.8816L135.833 36.9909V50.7106H139.714V29.1795L135.833 32.1337ZM114.113 46.8683L105.005 29.1795L95.8979 46.8683L93.9117 50.7106H98.2594L100.246 46.8683L104.996 37.6433L109.747 46.8683L111.733 50.7106H116.081L114.094 46.8683H114.113ZM76.1819 33.0217H92.0627V29.1795H76.1819C72.9509 29.1795 70.3422 31.7984 70.3422 34.9972V44.9019C70.3422 48.1008 72.9509 50.7197 76.1819 50.7197H92.0627V46.8774H76.1819C75.0927 46.8774 74.1957 45.9893 74.1957 44.911V40.8512H88.1726V37.009H74.1957V35.0063C74.1957 33.9279 75.0927 33.0399 76.1819 33.0399V33.0217ZM51.4775 37.0543V33.0852H61.3263C62.0128 33.0852 62.4796 33.3933 62.7268 33.6379C62.9464 33.8554 63.3126 34.3448 63.3126 35.0516C63.3126 35.8219 62.8457 36.5287 62.1318 36.8368C61.8847 36.9637 61.6009 37.018 61.3263 37.018L51.4775 37.0452V37.0543ZM62.0769 40.7787C62.6627 40.7153 63.2302 40.5613 63.7519 40.3166C65.7748 39.3923 67.166 37.3624 67.166 35.0244C67.166 33.4205 66.5162 31.9796 65.4544 30.9375C64.4018 29.8954 62.9373 29.2429 61.3263 29.2429H47.5965V50.774H51.4775V40.8694H55.3584C56.7589 40.8694 57.9671 41.6034 58.6536 42.718L58.7451 42.8992L60.8229 46.9318L62.8091 50.774H67.1569L65.1707 46.9318L62.0677 40.7787H62.0769ZM22.7731 29.1795V33.0217H31.6883V50.7106H35.5693V33.0217H44.4845V29.1795H22.764H22.7731ZM20.6862 35.115V34.9882C20.6862 31.7893 18.0409 29.1704 14.8098 29.1704H5.99533C2.76426 29.1704 0.155602 31.7893 0.155602 34.9882V35.115C0.155602 36.3475 0.530882 37.4802 1.18076 38.4045C1.40043 38.7398 1.64757 39.0479 1.92217 39.3288C2.97478 40.3438 4.41183 40.96 5.99533 40.96H13.8213C15.4689 40.96 16.8327 42.283 16.8327 43.9142C16.8327 45.5453 15.4689 46.8683 13.8213 46.8683H7.02049C5.37292 46.8683 4.03655 45.5453 4.03655 43.9142H0.155602C0.155602 47.6658 3.23107 50.7106 7.02049 50.7106H13.8213C17.6107 50.7106 20.6862 47.6658 20.6862 43.9142C20.6862 42.283 20.1004 40.7787 19.1301 39.6097C19.0386 39.5191 18.9745 39.4285 18.883 39.3288C17.6382 37.9786 15.835 37.1177 13.8213 37.1177H5.99533C4.9061 37.1177 4.00909 36.2297 4.00909 35.1513V35.0244C4.00909 33.946 4.9061 33.058 5.99533 33.058H14.819C15.9082 33.058 16.8052 33.946 16.8052 35.0244V35.1513L20.6862 35.1241V35.115Z" fill="white"/>
<path d="M105.756 20.1537C105.518 18.8216 105.902 17.3083 106.268 16.0124C108.84 6.94145 117.124 0.534669 126.634 0.271873C128.355 0.226563 132.355 0.11782 131.907 2.80015C131.504 5.24687 129.215 4.4313 127.577 4.42223C119.614 4.39505 112.429 9.43348 110.314 17.1271C109.71 19.3382 109.911 22.5733 106.342 20.924L105.747 20.1537H105.756Z" fill="white"/>
<path d="M124.996 28.536C118.662 22.3195 128.785 14.0913 133.801 20.4437C138.405 26.2705 130.003 33.4476 124.996 28.536ZM126.909 23.8691C126.561 26.5243 130.845 27.3036 131.156 24.3766C131.458 21.5402 127.257 21.2502 126.909 23.8691Z" fill="#B7D2FF"/>
<path d="M115.248 22.6459C114.113 21.5494 114.772 19.5286 115.229 18.2328C116.941 13.3846 121.399 10.0317 126.57 9.64205C127.293 9.58768 129.014 9.57862 129.646 9.83235C130.845 10.3126 131.403 11.7082 130.753 12.8137C129.865 14.2999 128.703 13.729 127.321 13.7924C123.788 13.9465 120.721 15.8767 119.348 19.1661C118.936 20.1539 118.882 22.0206 118.131 22.6822C117.362 23.3527 115.98 23.3527 115.248 22.6459Z" fill="#789BFF"/>
<path d="M303.272 46.1703H307.556C307.08 45.2188 306.375 44.7476 305.451 44.7476C304.435 44.7476 303.712 45.2188 303.272 46.1703ZM309.085 47.3393H303.117C303.245 48.0552 303.538 48.5718 304.005 48.907C304.471 49.2333 304.966 49.4054 305.515 49.4054C306.348 49.4054 307.053 49.0611 307.62 48.3724L308.7 49.1789C307.895 50.212 306.815 50.7285 305.46 50.7285C304.417 50.7285 303.547 50.3751 302.851 49.6682C302.156 48.9614 301.799 48.0915 301.799 47.0403C301.799 46.0616 302.156 45.2098 302.861 44.4848C303.565 43.7689 304.435 43.4065 305.46 43.4065C306.485 43.4065 307.327 43.7689 308.041 44.5029C308.755 45.237 309.112 46.1794 309.103 47.3393H309.085ZM300.673 48.4177V50.0851C299.922 50.511 299.19 50.7194 298.485 50.7194C297.515 50.7194 296.673 50.3569 295.95 49.6411C295.227 48.9161 294.861 48.0824 294.861 47.14C294.861 46.0616 295.218 45.1735 295.941 44.4667C296.664 43.7599 297.57 43.4065 298.659 43.4065C299.309 43.4065 299.977 43.5696 300.664 43.9049V45.536C299.922 45.0738 299.227 44.8473 298.559 44.8473C297.945 44.8473 297.414 45.0557 296.957 45.4816C296.499 45.9075 296.27 46.406 296.27 46.9769C296.27 47.6203 296.481 48.1549 296.911 48.5989C297.341 49.0339 297.863 49.2605 298.485 49.2605C299.108 49.2605 299.84 48.9795 300.655 48.4177H300.673ZM287.547 50.5291V43.6058H289.021V44.7567C289.442 44.2945 289.826 43.9502 290.165 43.7327C290.504 43.5152 290.888 43.4065 291.309 43.4065C291.941 43.4065 292.472 43.6149 292.92 44.0317C293.369 44.4486 293.588 44.947 293.588 45.5269V50.5382H292.115V45.9529C292.115 45.5723 291.996 45.2641 291.749 45.0195C291.501 44.7748 291.199 44.6479 290.824 44.6479C290.339 44.6479 289.918 44.8564 289.561 45.2641C289.204 45.6719 289.03 46.1703 289.03 46.7594V50.5382H287.547V50.5291ZM280.316 46.1703H284.6C284.124 45.2188 283.419 44.7476 282.495 44.7476C281.479 44.7476 280.756 45.2188 280.316 46.1703ZM286.129 47.3393H280.161C280.289 48.0552 280.582 48.5718 281.048 48.907C281.515 49.2333 282.01 49.4054 282.559 49.4054C283.392 49.4054 284.096 49.0611 284.664 48.3724L285.744 49.1789C284.939 50.212 283.859 50.7285 282.504 50.7285C281.46 50.7285 280.591 50.3751 279.895 49.6682C279.2 48.9614 278.843 48.0915 278.843 47.0403C278.843 46.0616 279.2 45.2098 279.904 44.4848C280.609 43.7689 281.479 43.4065 282.504 43.4065C283.529 43.4065 284.371 43.7689 285.085 44.5029C285.799 45.237 286.156 46.1794 286.147 47.3393H286.129ZM275.941 47.0493C275.941 46.3969 275.712 45.8532 275.255 45.4182C274.797 44.9832 274.239 44.7657 273.561 44.7657C272.948 44.7657 272.399 44.9923 271.932 45.4454C271.465 45.8985 271.227 46.4241 271.227 47.0222C271.227 47.6656 271.456 48.2183 271.923 48.6896C272.39 49.1517 272.939 49.3873 273.579 49.3873C274.22 49.3873 274.779 49.1608 275.245 48.7077C275.703 48.2546 275.941 47.7018 275.941 47.0584V47.0493ZM275.74 43.6058H277.177V50.2482C277.177 51.2269 276.838 52.0606 276.152 52.7493C275.474 53.438 274.65 53.7733 273.68 53.7733C272.948 53.7733 272.271 53.5739 271.657 53.1843C271.044 52.7855 270.586 52.1875 270.303 51.39H271.831C272.289 52.1331 272.92 52.5046 273.735 52.5046C274.284 52.5046 274.76 52.3053 275.145 51.9156C275.538 51.5259 275.73 51.0457 275.73 50.4929V49.188C275.017 50.212 274.12 50.7194 273.039 50.7194C272.142 50.7194 271.364 50.3569 270.705 49.6229C270.046 48.8889 269.708 48.028 269.708 47.0312C269.708 46.0344 270.028 45.1826 270.678 44.4667C271.328 43.7508 272.097 43.3974 272.985 43.3974C274.138 43.3974 275.053 43.9502 275.73 45.0648V43.6058H275.74ZM266.257 43.6058H267.731V50.5291H266.257V43.6058ZM265.845 41.3403C265.845 41.0322 265.955 40.7785 266.184 40.5519C266.413 40.3345 266.678 40.2167 266.989 40.2167C267.3 40.2167 267.557 40.3254 267.786 40.5519C268.005 40.7694 268.124 41.0322 268.124 41.3403C268.124 41.6484 268.014 41.9112 267.786 42.1287C267.566 42.3462 267.3 42.455 266.989 42.455C266.678 42.455 266.413 42.3462 266.184 42.1287C265.955 41.9112 265.845 41.6484 265.845 41.3403ZM262.513 39.6367H263.987V50.5291H262.513V39.6367ZM258.706 39.6367H260.179V50.5291H258.706V39.6367ZM250.999 46.1703H255.282C254.806 45.2188 254.102 44.7476 253.177 44.7476C252.161 44.7476 251.438 45.2188 250.999 46.1703ZM256.811 47.3393H250.843C250.971 48.0552 251.264 48.5718 251.731 48.907C252.198 49.2333 252.692 49.4054 253.241 49.4054C254.074 49.4054 254.779 49.0611 255.346 48.3724L256.426 49.1789C255.621 50.212 254.541 50.7285 253.177 50.7285C252.134 50.7285 251.264 50.3751 250.568 49.6682C249.873 48.9614 249.516 48.0915 249.516 47.0403C249.516 46.0616 249.873 45.2098 250.578 44.4848C251.282 43.7689 252.152 43.4065 253.177 43.4065C254.202 43.4065 255.044 43.7689 255.758 44.5029C256.472 45.237 256.829 46.1794 256.82 47.3393H256.811ZM245.607 41.6122H247.081V43.6058H248.536V44.9651H247.081V50.5291H245.607V44.9651H244.445V43.6058H245.607V41.6122ZM237.26 50.5291V43.6058H238.733V44.7567C239.154 44.2945 239.539 43.9502 239.877 43.7327C240.216 43.5152 240.601 43.4065 241.022 43.4065C241.653 43.4065 242.184 43.6149 242.633 44.0317C243.081 44.4486 243.301 44.947 243.301 45.5269V50.5382H241.827V45.9529C241.827 45.5723 241.708 45.2641 241.461 45.0195C241.214 44.7748 240.912 44.6479 240.536 44.6479C240.051 44.6479 239.63 44.8564 239.273 45.2641C238.916 45.6719 238.742 46.1703 238.742 46.7594V50.5382H237.26V50.5291ZM233.836 39.8451H235.31V50.5291H233.836V39.8451ZM221.434 46.1703H225.717C225.242 45.2188 224.537 44.7476 223.612 44.7476C222.596 44.7476 221.873 45.2188 221.434 46.1703ZM227.246 47.3393H221.278C221.406 48.0552 221.699 48.5718 222.166 48.907C222.633 49.2333 223.127 49.4054 223.676 49.4054C224.509 49.4054 225.214 49.0611 225.782 48.3724L226.862 49.1789C226.056 50.212 224.976 50.7285 223.612 50.7285C222.569 50.7285 221.699 50.3751 221.004 49.6682C220.308 48.9614 219.951 48.0915 219.951 47.0403C219.951 46.0616 220.308 45.2098 221.013 44.4848C221.718 43.7689 222.587 43.4065 223.612 43.4065C224.637 43.4065 225.48 43.7689 226.193 44.5029C226.907 45.237 227.264 46.1794 227.255 47.3393H227.246ZM218.706 44.4214L217.727 45.2732C217.47 45.092 217.251 44.956 217.068 44.8654C216.876 44.7748 216.656 44.7295 216.409 44.7295C215.805 44.7295 215.503 44.947 215.503 45.382C215.503 45.6991 215.878 45.9982 216.638 46.2972C217.397 46.5963 217.946 46.9134 218.276 47.2668C218.605 47.6203 218.779 48.0462 218.779 48.5446C218.779 49.1245 218.541 49.632 218.056 50.067C217.58 50.5019 217.013 50.7194 216.363 50.7194C215.374 50.7194 214.569 50.2663 213.937 49.3692L215.1 48.8164C215.512 49.2061 215.933 49.3964 216.372 49.3964C216.674 49.3964 216.94 49.3148 217.168 49.1427C217.397 48.9795 217.516 48.7892 217.516 48.5718C217.516 48.1821 217.113 47.8377 216.317 47.5206C215.512 47.2125 214.953 46.8953 214.651 46.5781C214.34 46.261 214.184 45.8713 214.184 45.4091C214.184 44.8292 214.404 44.3489 214.844 43.9683C215.283 43.5877 215.832 43.3883 216.491 43.3883C217.15 43.3883 217.892 43.7236 218.715 44.4033V44.4214H218.706ZM210.825 43.6058H212.299V50.5291H210.825V43.6058ZM210.413 41.3403C210.413 41.0322 210.523 40.7785 210.752 40.5519C210.981 40.3345 211.246 40.2167 211.558 40.2167C211.869 40.2167 212.125 40.3254 212.354 40.5519C212.574 40.7694 212.693 41.0322 212.693 41.3403C212.693 41.6484 212.583 41.9112 212.354 42.1287C212.134 42.3462 211.869 42.455 211.558 42.455C211.246 42.455 210.981 42.3462 210.752 42.1287C210.523 41.9112 210.413 41.6484 210.413 41.3403ZM206.542 43.6058V45.0285C206.871 44.4576 207.191 44.0408 207.503 43.778C207.814 43.5243 208.226 43.3974 208.729 43.3974C208.866 43.3974 209.077 43.4336 209.342 43.4971L208.912 44.956C208.629 44.9017 208.436 44.8745 208.354 44.8745C207.85 44.8745 207.439 45.0467 207.1 45.391C206.761 45.7354 206.596 46.1613 206.596 46.6778V50.5201H205.123V43.5968H206.56H206.542V43.6058ZM201.48 47.0312C201.48 46.415 201.251 45.8804 200.784 45.4273C200.317 44.9651 199.777 44.7386 199.146 44.7386C198.514 44.7386 197.956 44.9651 197.489 45.4182C197.022 45.8713 196.793 46.406 196.793 47.0312C196.793 47.6565 197.022 48.2183 197.489 48.6805C197.947 49.1427 198.496 49.3783 199.118 49.3783C199.741 49.3783 200.327 49.1517 200.784 48.6896C201.251 48.2274 201.48 47.6746 201.48 47.0312ZM197.004 43.6058V45.0014C197.709 43.932 198.606 43.4065 199.704 43.4065C200.61 43.4065 201.379 43.7599 202.029 44.4758C202.679 45.1917 203.008 46.0435 203.008 47.0312C203.008 48.019 202.679 48.898 202.02 49.6229C201.361 50.3569 200.583 50.7194 199.686 50.7194C199.164 50.7194 198.67 50.5835 198.194 50.3116C197.718 50.0488 197.324 49.6592 197.013 49.1427V53.7733H195.539V43.6058H197.013H197.004ZM191.192 43.6058V45.0285C191.521 44.4576 191.842 44.0408 192.153 43.778C192.464 43.5243 192.876 43.3974 193.379 43.3974C193.517 43.3974 193.727 43.4336 193.993 43.4971L193.562 44.956C193.279 44.9017 193.086 44.8745 193.004 44.8745C192.501 44.8745 192.089 45.0467 191.75 45.391C191.411 45.7354 191.247 46.1613 191.247 46.6778V50.5201H189.773V43.5968H191.21H191.192V43.6058ZM182.048 46.1703H186.331C185.855 45.2188 185.151 44.7476 184.226 44.7476C183.21 44.7476 182.487 45.2188 182.048 46.1703ZM187.86 47.3393H181.892C182.02 48.0552 182.313 48.5718 182.78 48.907C183.247 49.2333 183.741 49.4054 184.29 49.4054C185.123 49.4054 185.828 49.0611 186.395 48.3724L187.475 49.1789C186.67 50.212 185.59 50.7285 184.235 50.7285C183.192 50.7285 182.322 50.3751 181.627 49.6682C180.931 48.9614 180.574 48.0915 180.574 47.0403C180.574 46.0616 180.931 45.2098 181.636 44.4848C182.341 43.7689 183.21 43.4065 184.235 43.4065C185.26 43.4065 186.103 43.7689 186.816 44.5029C187.53 45.237 187.887 46.1794 187.878 47.3393H187.86ZM176.647 41.6122H178.121V43.6058H179.576V44.9651H178.121V50.5291H176.647V44.9651H175.485V43.6058H176.647V41.6122ZM168.3 50.5291V43.6058H169.773V44.7567C170.194 44.2945 170.579 43.9502 170.917 43.7327C171.256 43.5152 171.64 43.4065 172.062 43.4065C172.693 43.4065 173.224 43.6149 173.672 44.0317C174.121 44.4486 174.341 44.947 174.341 45.5269V50.5382H172.867V45.9529C172.867 45.5723 172.748 45.2641 172.501 45.0195C172.254 44.7748 171.952 44.6479 171.576 44.6479C171.091 44.6479 170.67 44.8564 170.313 45.2641C169.956 45.6719 169.782 46.1703 169.782 46.7594V50.5382H168.3V50.5291ZM160.995 39.8451H166.982V41.3041H162.469V43.9502H166.982V45.4091H162.469V49.0702H166.982V50.5291H160.995V39.8451ZM253.799 25.7176L252.82 26.5694C252.564 26.3882 252.344 26.2522 252.161 26.1616C251.969 26.071 251.749 26.0257 251.502 26.0257C250.898 26.0257 250.596 26.2432 250.596 26.6781C250.596 26.9953 250.971 27.2944 251.731 27.5934C252.491 27.8924 253.04 28.2096 253.369 28.563C253.699 28.9164 253.873 29.3424 253.873 29.8408C253.873 30.4207 253.635 30.9282 253.15 31.3632C252.674 31.7981 252.106 32.0156 251.456 32.0156C250.468 32.0156 249.662 31.5625 249.031 30.6654L250.193 30.1126C250.605 30.5023 251.026 30.6926 251.465 30.6926C251.767 30.6926 252.033 30.611 252.262 30.4479C252.491 30.2848 252.61 30.0945 252.61 29.8679C252.61 29.4783 252.207 29.1339 251.41 28.8168C250.605 28.5087 250.047 28.1915 249.745 27.8743C249.433 27.5571 249.278 27.1675 249.278 26.7053C249.278 26.1254 249.497 25.6451 249.937 25.2645C250.376 24.8839 250.925 24.6936 251.584 24.6936C252.243 24.6936 252.985 25.0289 253.809 25.7085L253.799 25.7176ZM241.699 31.8253V24.902H243.173V26.0529C243.594 25.5907 243.978 25.2464 244.317 25.0289C244.655 24.8114 245.04 24.7026 245.461 24.7026C246.092 24.7026 246.623 24.9111 247.072 25.3279C247.52 25.7448 247.74 26.2432 247.74 26.8231V31.8344H246.266V27.249C246.266 26.8684 246.147 26.5603 245.9 26.3157C245.653 26.071 245.351 25.9441 244.976 25.9441C244.491 25.9441 244.07 26.1526 243.713 26.5603C243.356 26.9681 243.182 27.4665 243.182 28.0556V31.8344H241.699V31.8253ZM238.98 28.3365C238.98 27.7475 238.752 27.2309 238.303 26.7959C237.855 26.361 237.315 26.1435 236.692 26.1435C236.07 26.1435 235.502 26.361 235.045 26.805C234.587 27.249 234.349 27.7746 234.349 28.3908C234.349 29.0071 234.587 29.4873 235.045 29.9314C235.511 30.3663 236.061 30.5929 236.683 30.5929C237.305 30.5929 237.827 30.3663 238.285 29.9132C238.742 29.4602 238.971 28.9346 238.971 28.3365H238.98ZM232.903 28.3365C232.903 27.385 233.278 26.5422 234.038 25.8082C234.788 25.0651 235.658 24.7026 236.637 24.7026C237.617 24.7026 238.523 25.0651 239.273 25.7901C240.024 26.515 240.399 27.3668 240.399 28.3365C240.399 29.3061 240.033 30.176 239.292 30.9191C238.55 31.6622 237.708 32.0337 236.738 32.0337C235.704 32.0337 234.807 31.6713 234.047 30.9282C233.287 30.1942 232.912 29.3242 232.912 28.3365H232.903ZM229.635 24.902H231.109V31.8253H229.635V24.902ZM229.223 22.6365C229.223 22.3284 229.333 22.0747 229.562 21.8481C229.791 21.6307 230.056 21.5128 230.367 21.5128C230.679 21.5128 230.935 21.6216 231.164 21.8481C231.383 22.0656 231.502 22.3284 231.502 22.6365C231.502 22.9446 231.392 23.2074 231.164 23.4249C230.944 23.6424 230.679 23.7511 230.367 23.7511C230.056 23.7511 229.791 23.6424 229.562 23.4249C229.333 23.2074 229.223 22.9446 229.223 22.6365ZM225.269 22.9084H226.743V24.902H228.198V26.2613H226.743V31.8253H225.269V26.2613H224.107V24.902H225.269V22.9084ZM221.315 28.3727C221.315 27.7384 221.086 27.1947 220.619 26.7506C220.162 26.2975 219.603 26.071 218.962 26.071C218.322 26.071 217.791 26.2975 217.324 26.7416C216.857 27.1947 216.628 27.7203 216.628 28.3274C216.628 28.9799 216.857 29.5417 217.315 30.0039C217.773 30.466 218.322 30.6926 218.972 30.6926C219.621 30.6926 220.171 30.466 220.628 30.0039C221.086 29.5508 221.324 29.0071 221.324 28.3727H221.315ZM221.104 24.902H222.578V31.8253H221.104V30.4479C220.381 31.49 219.493 32.0156 218.432 32.0156C217.507 32.0156 216.72 31.6531 216.07 30.9372C215.42 30.2214 215.091 29.3514 215.091 28.3274C215.091 27.3578 215.42 26.506 216.079 25.781C216.738 25.0561 217.516 24.6936 218.404 24.6936C218.953 24.6936 219.475 24.8386 219.969 25.1467C220.464 25.4457 220.839 25.8354 221.113 26.3157V24.9111L221.104 24.902ZM213.663 25.7176L212.683 26.5694C212.427 26.3882 212.207 26.2522 212.024 26.1616C211.832 26.071 211.612 26.0257 211.365 26.0257C210.761 26.0257 210.459 26.2432 210.459 26.6781C210.459 26.9953 210.834 27.2944 211.594 27.5934C212.354 27.8924 212.903 28.2096 213.233 28.563C213.562 28.9164 213.736 29.3424 213.736 29.8408C213.736 30.4207 213.498 30.9282 213.013 31.3632C212.537 31.7981 211.969 32.0156 211.32 32.0156C210.331 32.0156 209.526 31.5625 208.894 30.6654L210.056 30.1126C210.468 30.5023 210.889 30.6926 211.329 30.6926C211.631 30.6926 211.896 30.611 212.125 30.4479C212.354 30.2848 212.473 30.0945 212.473 29.8679C212.473 29.4783 212.07 29.1339 211.274 28.8168C210.468 28.5087 209.91 28.1915 209.608 27.8743C209.297 27.5571 209.141 27.1675 209.141 26.7053C209.141 26.1254 209.361 25.6451 209.8 25.2645C210.239 24.8839 210.789 24.6936 211.448 24.6936C212.107 24.6936 212.848 25.0289 213.672 25.7085L213.663 25.7176ZM205.297 24.902V26.3247C205.626 25.7538 205.947 25.337 206.258 25.0742C206.569 24.8204 206.981 24.6936 207.484 24.6936C207.622 24.6936 207.832 24.7298 208.098 24.7933L207.667 26.2522C207.384 26.1979 207.201 26.1707 207.109 26.1707C206.606 26.1707 206.194 26.3429 205.855 26.6872C205.516 27.0316 205.352 27.4575 205.352 27.974V31.8163H203.878V24.8929H205.315H205.297V24.902ZM196.153 27.4665H200.436C199.96 26.515 199.256 26.0438 198.331 26.0438C197.315 26.0438 196.592 26.515 196.153 27.4665ZM201.965 28.6355H195.997C196.125 29.3514 196.418 29.8679 196.885 30.2032C197.352 30.5295 197.846 30.7016 198.395 30.7016C199.228 30.7016 199.933 30.3573 200.5 29.6686L201.581 30.4751C200.775 31.5082 199.695 32.0247 198.34 32.0247C197.297 32.0247 196.427 31.6713 195.732 30.9644C195.036 30.2576 194.679 29.3877 194.679 28.3365C194.679 27.3578 195.036 26.506 195.741 25.781C196.446 25.0651 197.315 24.7026 198.34 24.7026C199.365 24.7026 200.208 25.0651 200.922 25.7991C201.635 26.5332 201.992 27.4756 201.983 28.6355H201.965ZM187.009 24.902H188.556L190.542 28.9074L192.501 24.902H194.057L190.542 32.0791L187.009 24.902ZM179.86 31.8253V24.902H181.334V26.0529C181.755 25.5907 182.139 25.2464 182.478 25.0289C182.817 24.8114 183.201 24.7026 183.622 24.7026C184.254 24.7026 184.784 24.9111 185.233 25.3279C185.681 25.7448 185.901 26.2432 185.901 26.8231V31.8344H184.427V27.249C184.427 26.8684 184.308 26.5603 184.061 26.3157C183.814 26.071 183.512 25.9441 183.137 25.9441C182.652 25.9441 182.231 26.1526 181.874 26.5603C181.517 26.9681 181.343 27.4665 181.343 28.0556V31.8344H179.86V31.8253ZM177.132 28.3365C177.132 27.7475 176.904 27.2309 176.455 26.7959C176.007 26.361 175.467 26.1435 174.844 26.1435C174.222 26.1435 173.654 26.361 173.197 26.805C172.739 27.249 172.501 27.7746 172.501 28.3908C172.501 29.0071 172.739 29.4873 173.197 29.9314C173.663 30.3663 174.213 30.5929 174.835 30.5929C175.457 30.5929 175.979 30.3663 176.437 29.9132C176.894 29.4602 177.123 28.9346 177.123 28.3365H177.132ZM171.064 28.3365C171.064 27.385 171.439 26.5422 172.199 25.8082C172.949 25.0651 173.819 24.7026 174.798 24.7026C175.778 24.7026 176.684 25.0651 177.434 25.7901C178.185 26.515 178.56 27.3668 178.56 28.3365C178.56 29.3061 178.194 30.176 177.453 30.9191C176.711 31.6622 175.869 32.0337 174.899 32.0337C173.865 32.0337 172.968 31.6713 172.208 30.9282C171.448 30.1942 171.073 29.3242 171.073 28.3365H171.064ZM169.846 21.5038V23.1531C168.684 22.5912 167.613 22.3103 166.634 22.3103C165.38 22.3103 164.327 22.709 163.467 23.5065C162.606 24.3039 162.176 25.2917 162.176 26.4516C162.176 27.6115 162.615 28.6265 163.494 29.4239C164.373 30.2214 165.471 30.611 166.798 30.611C167.76 30.611 168.776 30.312 169.846 29.7139V31.3813C168.867 31.8978 167.814 32.1515 166.67 32.1515C164.995 32.1515 163.567 31.5897 162.377 30.4751C161.188 29.3514 160.593 28.0012 160.593 26.4244C160.593 24.8476 161.178 23.5427 162.341 22.4372C163.512 21.3316 164.913 20.7788 166.56 20.7788C167.613 20.7788 168.711 21.0144 169.837 21.4857V21.5038H169.846ZM252.61 7.00471L251.63 7.85653C251.374 7.67529 251.154 7.53936 250.971 7.44874C250.779 7.35812 250.559 7.31281 250.312 7.31281C249.708 7.31281 249.406 7.5303 249.406 7.96527C249.406 8.28244 249.781 8.58148 250.541 8.88053C251.301 9.17957 251.85 9.49674 252.179 9.85015C252.509 10.2036 252.683 10.6295 252.683 11.1279C252.683 11.7078 252.445 12.2153 251.96 12.6503C251.484 13.0853 250.916 13.3027 250.266 13.3027C249.278 13.3027 248.472 12.8496 247.841 11.9525L249.003 11.3997C249.415 11.7894 249.836 11.9797 250.275 11.9797C250.578 11.9797 250.843 11.8981 251.072 11.735C251.301 11.5719 251.42 11.3816 251.42 11.1551C251.42 10.7654 251.017 10.4211 250.221 10.1039C249.415 9.79578 248.866 9.47861 248.555 9.16145C248.243 8.84428 248.088 8.45462 248.088 7.99246C248.088 7.4125 248.308 6.93221 248.747 6.55161C249.186 6.17101 249.735 5.98071 250.394 5.98071C251.053 5.98071 251.795 6.316 252.619 6.99565L252.61 7.00471ZM240.884 8.76272H245.168C244.692 7.81122 243.987 7.34 243.063 7.34C242.047 7.34 241.324 7.81122 240.884 8.76272ZM246.697 9.92265H240.729C240.857 10.6385 241.15 11.1551 241.617 11.4904C242.083 11.8166 242.578 11.9888 243.127 11.9888C243.96 11.9888 244.665 11.6444 245.232 10.9557L246.312 11.7622C245.507 12.7953 244.427 13.3118 243.063 13.3118C242.019 13.3118 241.15 12.9584 240.454 12.2516C239.758 11.5447 239.401 10.6748 239.401 9.6236C239.401 8.64492 239.758 7.7931 240.463 7.06814C241.168 6.35225 242.038 5.98977 243.063 5.98977C244.088 5.98977 244.93 6.35225 245.644 7.08627C246.358 7.82028 246.715 8.76272 246.706 9.92265H246.697ZM238.285 11.0101V12.6775C237.534 13.1034 236.802 13.3118 236.097 13.3118C235.136 13.3118 234.285 12.9493 233.562 12.2334C232.839 11.5085 232.473 10.6748 232.473 9.73235C232.473 8.65398 232.83 7.76591 233.553 7.05908C234.276 6.35225 235.182 5.99884 236.271 5.99884C236.921 5.99884 237.589 6.16195 238.276 6.49724V8.12839C237.534 7.66623 236.839 7.43968 236.17 7.43968C235.557 7.43968 235.026 7.64811 234.569 8.07402C234.111 8.49993 233.882 8.99833 233.882 9.56923C233.882 10.2126 234.093 10.7473 234.523 11.1913C234.953 11.6263 235.475 11.8528 236.097 11.8528C236.72 11.8528 237.452 11.5719 238.267 11.0101H238.285ZM229.379 6.1982H230.852V13.1215H229.379V6.1982ZM228.958 3.93272C228.958 3.62461 229.068 3.37088 229.296 3.14433C229.525 2.92684 229.791 2.80904 230.102 2.80904C230.413 2.80904 230.669 2.91778 230.898 3.14433C231.118 3.36182 231.237 3.62461 231.237 3.93272C231.237 4.24082 231.127 4.50362 230.898 4.7211C230.679 4.93859 230.413 5.04733 230.102 5.04733C229.791 5.04733 229.525 4.93859 229.296 4.7211C229.068 4.50362 228.958 4.24082 228.958 3.93272ZM226.239 9.63267C226.239 9.04364 226.01 8.52711 225.562 8.09214C225.113 7.65717 224.573 7.43968 223.951 7.43968C223.329 7.43968 222.761 7.65717 222.303 8.1012C221.846 8.54524 221.608 9.07083 221.608 9.68704C221.608 10.3032 221.846 10.7835 222.303 11.2276C222.77 11.6625 223.319 11.8891 223.942 11.8891C224.564 11.8891 225.086 11.6625 225.544 11.2094C226.001 10.7563 226.23 10.2308 226.23 9.63267H226.239ZM220.162 9.63267C220.162 8.68117 220.537 7.83841 221.297 7.10439C222.047 6.36131 222.917 5.99884 223.896 5.99884C224.875 5.99884 225.782 6.36131 226.532 7.08627C227.283 7.81122 227.658 8.66304 227.658 9.63267C227.658 10.6023 227.292 11.4722 226.55 12.2153C225.809 12.9584 224.967 13.3299 223.997 13.3299C222.962 13.3299 222.065 12.9675 221.306 12.2244C220.546 11.4904 220.171 10.6204 220.171 9.63267H220.162ZM210.358 2.4375H211.914L215.292 10.0133L218.734 2.4375H220.281L215.274 13.4659L210.358 2.4375ZM202.102 4.20457H203.576V6.1982H205.031V7.55749H203.576V13.1215H202.102V7.55749H200.94V6.1982H202.102V4.20457ZM197.141 6.1982V7.62092C197.471 7.05002 197.791 6.63317 198.102 6.37037C198.414 6.11664 198.825 5.98977 199.329 5.98977C199.466 5.98977 199.677 6.02602 199.942 6.08945L199.512 7.54842C199.228 7.49405 199.036 7.46687 198.954 7.46687C198.45 7.46687 198.038 7.63904 197.7 7.9834C197.361 8.32775 197.196 8.75366 197.196 9.27019V13.1124H195.723V6.18914H197.16H197.141V6.1982ZM187.997 8.76272H192.281C191.805 7.81122 191.1 7.34 190.176 7.34C189.16 7.34 188.437 7.81122 187.997 8.76272ZM193.809 9.92265H187.842C187.97 10.6385 188.263 11.1551 188.729 11.4904C189.196 11.8166 189.691 11.9888 190.24 11.9888C191.073 11.9888 191.777 11.6444 192.345 10.9557L193.425 11.7622C192.62 12.7953 191.54 13.3118 190.176 13.3118C189.132 13.3118 188.263 12.9584 187.567 12.2516C186.871 11.5447 186.514 10.6748 186.514 9.6236C186.514 8.64492 186.871 7.7931 187.576 7.06814C188.281 6.35225 189.151 5.98977 190.176 5.98977C191.201 5.98977 192.043 6.35225 192.757 7.08627C193.471 7.82028 193.828 8.76272 193.819 9.92265H193.809ZM183.402 9.6236C183.402 9.00739 183.173 8.47274 182.707 8.01964C182.24 7.55749 181.7 7.33094 181.068 7.33094C180.437 7.33094 179.878 7.55749 179.412 8.01058C178.945 8.46368 178.716 8.99833 178.716 9.6236C178.716 10.2489 178.945 10.8017 179.412 11.2729C179.869 11.735 180.418 11.9706 181.041 11.9706C181.663 11.9706 182.249 11.7441 182.707 11.2819C183.173 10.8198 183.402 10.267 183.402 9.6236ZM178.917 6.1982V7.59373C179.622 6.52443 180.519 5.99884 181.617 5.99884C182.524 5.99884 183.292 6.35225 183.942 7.06814C184.592 7.78403 184.922 8.63586 184.922 9.6236C184.922 10.6114 184.592 11.4904 183.933 12.2153C183.274 12.9493 182.496 13.3118 181.599 13.3118C181.077 13.3118 180.583 13.1759 180.107 12.904C179.631 12.6412 179.238 12.2516 178.926 11.735V16.3657H177.453V6.1982H178.926H178.917ZM168.583 6.1982H170.368L171.924 8.18276L173.462 6.1982H175.219L172.785 9.32456L175.723 13.1215H173.956L171.888 10.4664L169.819 13.1215H168.08L171.018 9.32456L168.565 6.1982H168.583ZM160.995 2.4375H166.982V3.89647H162.469V6.54255H166.982V8.00152H162.469V11.6625H166.982V13.1215H160.995V2.4375Z" fill="white"/>
<path d="M150.57 2.55566V50.2576" stroke="white" stroke-width="3" stroke-linecap="round" stroke-linejoin="round"/>
</g>
<defs>
<clipPath id="clip0_95_368">
<rect width="310" height="54" fill="white"/>
</clipPath>
</defs>
</svg>
