<svg width="68" height="68" viewBox="0 0 68 68" fill="none" xmlns="http://www.w3.org/2000/svg">
<circle cx="34" cy="34" r="33" stroke="#789BFF" stroke-width="2"/>
<path d="M52.7054 40.4513C50.6075 39.4604 46.1685 39.7037 43.7497 39.7798C43.4775 39.7887 43.2232 39.9321 42.9444 39.8619C41.6939 38.0746 39.812 36.9876 37.6187 36.8478C35.79 36.731 33.1183 36.7325 31.2889 36.8478C29.0475 36.9883 27.2491 38.0539 25.9639 39.8626C25.6851 39.9329 25.4308 39.7887 25.1586 39.7806C20.8313 39.6445 15.2704 38.9316 13.0897 43.5696C12.1772 45.5115 12.1077 50.142 13.2162 51.9973C13.8211 53.0089 15.6136 54.4435 16.8167 54.4435H24.925V52.9779H18.3282V44.9154H16.8625V52.8862C15.7829 52.7413 14.7513 51.8916 14.2958 50.9177C13.6843 49.6096 13.7797 45.7096 14.3446 44.3675C14.9606 42.9048 16.9232 41.2506 18.5574 41.2506H25.291C25.1712 41.8437 24.9656 42.4227 24.9213 43.0335C24.7623 45.1957 24.7512 48.8561 24.9213 51.0109C25.0344 52.4469 26.4542 54.4435 27.9938 54.4435H30.7882V42.7163H29.3226V52.9771C27.9361 53.1701 26.7204 52.5889 26.4128 51.1684C26.8165 47.2071 24.7882 40.7714 29.4439 38.7601C30.9709 38.1005 35.6258 38.201 37.4353 38.3142C44.325 38.7431 42.2323 46.5963 42.4741 51.2409C42.1435 52.6244 40.9323 53.162 39.5835 52.9771V42.7163H38.1179V54.4435H40.9123C42.4704 54.4435 43.8709 52.4536 43.9848 51.0109C44.1549 48.8561 44.1438 45.1957 43.9848 43.0335C43.9397 42.4227 43.7341 41.8437 43.6151 41.2506H50.3487C51.9718 41.2506 53.9573 42.9063 54.5615 44.3675C55.0828 45.629 55.2033 49.3404 54.7456 50.5946C54.3315 51.7297 53.257 52.7168 52.0443 52.8862V44.9154H50.5787V52.9779H43.9819V54.4435H52.0902C54.205 54.4435 56.2482 51.7896 56.4301 49.8048C56.768 46.1141 56.4286 42.2105 52.7047 40.452L52.7054 40.4513Z" fill="#789BFF"/>
<path d="M16.8633 34.653V33.1874C16.8633 33.1371 16.2369 33.2369 16.1356 32.5862C16.0084 31.7691 16.0328 28.9613 16.1275 28.1006C16.1815 27.6073 16.4107 27.3766 16.9069 27.3212C17.5081 27.2546 20.5917 27.4365 20.8083 27.2834C21.238 25.6951 21.8377 24.1681 22.7139 22.7727L19.8862 19.8577C19.6607 19.5175 19.6636 19.2114 19.9284 18.8912C20.5539 18.4653 22.8485 15.693 23.324 15.5991C23.7315 15.5185 23.9363 15.6449 24.235 15.8749C24.6743 16.2114 26.71 18.4763 26.9075 18.5141C28.382 17.7746 29.8395 16.9005 31.5166 16.6927C31.6297 15.4268 31.3805 13.9486 31.5181 12.7092C31.5728 12.2145 31.802 11.9853 32.2975 11.9298C33.2788 11.8204 35.5194 11.8366 36.5184 11.9276C36.9983 11.9712 37.3074 12.1176 37.3784 12.6257C37.4612 13.2224 37.2475 16.5463 37.3887 16.6927C39.0659 16.9279 40.5367 17.7657 42.0141 18.5274L44.938 15.6841C45.1798 15.5407 45.5421 15.5443 45.7728 15.6841L49.0206 18.9407C49.2395 19.2713 49.2395 19.5279 49.0206 19.8584L46.1929 22.7734C47.0839 24.1577 47.6703 25.6958 48.0985 27.2834C48.3181 27.438 51.3965 27.2546 51.9999 27.3212C52.4954 27.3759 52.7246 27.6073 52.7793 28.1006C52.874 28.9613 52.8991 31.7698 52.7712 32.5862C52.6699 33.2362 52.0436 33.1363 52.0436 33.1874V34.653C53.0507 34.7247 54.0268 33.8788 54.2006 32.9167C54.3581 32.0478 54.3574 28.6455 54.2339 27.7441C54.0963 26.7392 53.1594 25.9583 52.1796 25.8592C51.7093 25.8119 49.3023 25.9664 49.1552 25.769L48.0268 22.9856C49.1182 21.6428 51.3425 20.4884 50.4404 18.4372C50.2097 17.9129 47.4855 15.1835 46.9139 14.7258C44.6481 12.9133 43.3444 15.358 41.8085 16.6846C41.6769 16.7186 40.2638 16.011 39.9724 15.8956C39.6789 15.7788 38.9039 15.6582 38.8492 15.3698C38.6185 14.1438 39.2441 12.6094 38.4684 11.4447C38.1038 10.8968 37.4383 10.5344 36.7875 10.4686C35.8684 10.3755 32.3626 10.3518 31.592 10.5847C29.3625 11.2584 30.3053 13.8857 29.9644 15.554L27.096 16.6854C25.6933 15.5688 24.6728 13.3363 22.5387 14.3575C21.9442 14.6422 19.3878 17.2178 18.8754 17.8404C17.9237 18.9962 18.1019 20.0078 19.0136 21.0963C19.4825 21.6553 20.4482 22.3408 20.8091 22.8799C20.9695 23.1187 20.4541 23.8479 20.3269 24.1488C20.0918 24.7049 19.8796 25.2743 19.6888 25.8467C17.9821 25.9199 15.002 25.3268 14.6707 27.7456C14.5265 28.7994 14.565 31.4947 14.6596 32.5965C14.7602 33.7686 15.6557 34.6885 16.8618 34.6545L16.8633 34.653Z" fill="#789BFF"/>
<path d="M43.249 30.2554H44.7147C44.7147 26.0152 42.0245 22.1212 38.0491 20.6585C31.2822 18.1687 24.2358 23.1261 24.1921 30.2554H25.6578C25.6319 27.1481 27.3977 24.1503 30.0857 22.6351C36.0155 19.2935 43.1958 23.5417 43.2483 30.2554H43.249Z" fill="#789BFF"/>
<path d="M34.0685 27.3508C28.314 27.8432 29.0357 36.6895 34.9574 36.1179C40.5027 35.5825 39.8697 26.8538 34.0685 27.3508ZM32.3885 33.8329C29.6236 31.1221 33.8053 26.9226 36.5287 29.6468C39.2537 32.3718 35.1541 36.5453 32.3885 33.8329Z" fill="#789BFF"/>
<path d="M21.6084 30.2826C15.8539 30.7751 16.5756 39.6214 22.4973 39.0498C28.0426 38.5144 27.4096 29.7857 21.6084 30.2826ZM19.9284 36.7641C17.1635 34.0532 21.3452 29.8537 24.0687 32.578C26.7936 35.3029 22.694 39.4765 19.9284 36.7641Z" fill="#789BFF"/>
<path d="M47.4175 39.0498C52.9627 38.5144 52.3298 29.7857 46.5286 30.2826C40.7741 30.7751 41.4958 39.6214 47.4175 39.0498ZM48.9888 32.578C51.7138 35.3029 47.6142 39.4765 44.8485 36.7641C42.0837 34.0532 46.2654 29.8537 48.9888 32.578Z" fill="#789BFF"/>
<path d="M37.3858 52.9763H31.5225V54.4419H37.3858V52.9763Z" fill="#789BFF"/>
</svg>
