<svg width="68" height="68" viewBox="0 0 68 68" fill="none" xmlns="http://www.w3.org/2000/svg">
<circle cx="34" cy="34" r="33" stroke="#789BFF" stroke-width="2"/>
<g clip-path="url(#clip0_80_28)">
<path d="M48.58 35.5149L42.6687 41.4062H42.5325C42.1375 40.5474 41.2212 40.0799 40.3175 39.9212L31.5337 39.8924C29.2162 37.3337 25.9012 36.2624 22.5412 37.3187C19.7575 38.1937 18.11 40.6562 16.0325 42.5249C15.3162 42.1474 14.9337 40.9374 13.9825 41.5962C12.97 42.2987 11.91 43.8887 10.8937 44.6887C10.7125 44.9274 10.6962 45.2349 10.82 45.5024L23.2175 57.8774H23.78L27.1425 54.5437C27.6162 53.6512 26.4637 53.2674 26.13 52.6037C26.7637 51.9237 27.3225 51.2262 28.3225 51.1362C32.0512 50.8024 36.28 51.4262 40.0437 51.1387C41.7587 51.0074 43.3187 50.2424 44.5937 49.1299C47.6137 46.4937 50.3137 43.1287 53.3137 40.4287C56.1462 37.1962 52.0037 32.7712 48.5787 35.5162L48.58 35.5149ZM25.3337 54.2249C25.2775 54.3337 23.7025 55.9062 23.5925 55.9624L12.6662 45.2424C12.6037 45.1724 12.6287 45.1287 12.6662 45.0574C12.7237 44.9449 14.3412 43.3074 14.4662 43.2862L25.3337 54.0399C25.3962 54.1099 25.3712 54.1537 25.3337 54.2249ZM52.4162 39.1549L43.2825 48.2849C42.2987 49.0387 41.11 49.5524 39.8625 49.6437C36.09 49.9212 31.77 49.2649 28.0575 49.6512C26.68 49.7949 25.9437 50.6699 24.965 51.5037L17.1312 43.6849C17.1087 43.5712 17.2087 43.5312 17.2625 43.4612C17.9037 42.6274 19.8 40.8099 20.6387 40.0924C23.385 37.7424 27.2387 37.8837 29.8787 40.3249C30.1812 40.6049 30.525 41.2849 30.9725 41.3849L40.14 41.4049C41.8237 41.5937 41.9912 43.8987 40.3787 44.3574L29.3637 44.4049C28.5412 44.5324 28.4462 45.8012 29.5412 45.9012C32.9762 46.2137 36.91 45.6787 40.3962 45.8724C41.8825 45.6199 42.7162 44.5962 43.04 43.1774C45.3025 41.3387 47.3987 38.3112 49.6537 36.5849C49.9225 36.3799 50.2312 36.2312 50.5712 36.1899C52.225 35.9874 53.3425 37.7649 52.415 39.1549H52.4162Z" fill="#789BFF"/>
<path d="M21.2075 35.985C21.2075 32.6975 22.0775 29.335 24.1212 26.7287C25.2675 27.3875 27.5562 29.0587 27.5337 30.5012C27.53 30.7675 27.3775 31.3037 27.2962 31.5812C27.0462 32.4412 25.9625 34.06 25.9312 34.7175C25.8937 35.485 26.8125 35.7975 27.295 35.2287C28.08 33.3562 29.6137 31.3125 28.7362 29.2087C28.3125 28.1937 27.545 27.5125 26.7825 26.7612L25.0962 25.455C25.8712 24.6437 26.64 23.8837 27.5575 23.2325C27.7837 23.0712 28.8275 22.345 29.0025 22.3287C29.1337 22.3175 29.1462 22.3825 29.2075 22.4687C29.6275 23.0587 29.9125 23.7412 30.4012 24.3662C32.0887 26.5262 34.0187 27.1737 36.65 26.1312C37.445 25.8162 38.6062 24.735 39.2125 24.6637C39.975 24.575 40.6375 25.0637 41.36 25.1225C42.77 25.2387 44.1225 24.3337 44.9237 23.25C46.14 24.03 47.1737 25.0612 48.0462 26.2012C47.3587 26.9662 46.7637 27.825 46.2937 28.74C45.8237 29.6562 45.2837 31.7187 44.08 31.8637C42.8087 32.0162 41.51 31.6725 40.1825 31.9037C37.9612 32.29 36.4412 34.295 35.8262 36.3525C35.6525 36.935 35.27 38.1225 36.0575 38.3712C37.1062 38.7025 37.15 37.1012 37.3975 36.4237C37.7537 35.4512 38.5262 34.2075 39.4662 33.7162C40.8475 32.9937 42.74 33.5112 44.2525 33.3475C47.0062 33.05 47.2175 29.0725 48.9525 27.465C49.4625 28.3237 49.9387 29.2137 50.2875 30.155C50.5025 30.7337 50.93 32.7287 51.15 33.0125C51.4787 33.4362 52.3275 33.2512 52.4425 32.7275C52.5987 32.015 51.6937 29.5662 51.3587 28.805C49.29 24.1012 44.9587 20.4725 39.9062 19.37C38.9475 19.1612 37.98 19.0775 37.0125 18.9362C36.8737 17.8237 37.15 16.7075 38.2137 16.18C38.3525 16.1437 38.7262 16.6287 38.8825 16.7437C40.67 18.0525 42.4312 17.8612 44.375 17.0012C45.4925 16.5075 46.725 15.2825 47.9112 15.31C48.475 15.3237 49.0175 15.8175 49.52 15.305C50.005 14.8112 49.6362 14.365 49.2825 13.9412C48.2225 12.6725 46.1675 10.9425 44.6175 10.3637C41.375 9.15122 37.7987 10.9887 37.7975 14.6462C37.2075 14.9925 36.7525 15.3562 36.2837 15.855L34.7025 14.6462C34.68 10.9412 31.0875 9.12872 27.815 10.39C26.2962 10.975 24.2587 12.6925 23.2175 13.9412C22.9012 14.3212 22.5912 14.6425 22.8575 15.1475C23.2562 15.9037 24.0675 15.3075 24.6625 15.31C25.8012 15.3162 26.995 16.4875 28.0612 16.97C29.6625 17.695 31.3075 18.025 32.94 17.1875C33.4512 16.9262 33.8225 16.495 34.2862 16.1775C35.3475 16.7037 35.5987 17.785 35.5062 18.8937C34.1075 19.1162 32.7625 19.2612 31.3975 19.6712C25.2675 21.5125 20.5612 27.1337 19.845 33.4987C19.7725 34.1487 19.675 35.1137 19.7475 35.745C19.8437 36.5762 20.8887 36.7387 21.2075 35.9812V35.985ZM39.4362 13.8525C39.52 12.4337 40.9675 11.6475 42.2275 11.49C44.0412 11.2637 45.8987 12.7137 47.125 13.8975C44.7525 14.5775 42.3537 17.5475 39.815 15.5362C40.47 14.9912 42.4987 14.9012 42.115 13.7075C41.7712 12.6375 40.19 13.8087 39.575 13.99C39.425 14.0337 39.4287 13.98 39.4362 13.8525ZM30.3375 13.9475C30.2962 14.92 32.0862 15.0325 32.6862 15.5362C30.1887 17.525 27.7012 14.6212 25.3762 13.8525C27.085 12.38 28.83 10.8925 31.2387 11.7437C32.2875 12.115 33.015 12.8287 33.0625 13.9925C32.9237 14.1425 30.405 12.3512 30.3375 13.9487V13.9475ZM43.655 22.46C43.4287 22.6637 43.235 22.925 42.9925 23.1075C41.5937 24.155 41.1262 23.2975 39.755 23.1737C37.8187 22.9987 37.0975 24.595 35.3187 24.9912C32.7325 25.5675 31.4625 23.5887 30.4387 21.5712C34.7125 19.905 39.705 20.0362 43.6562 22.4587L43.655 22.46Z" fill="#789BFF"/>
</g>
<defs>
<clipPath id="clip0_80_28">
<rect width="48" height="48" fill="white" transform="translate(10 10)"/>
</clipPath>
</defs>
</svg>
